<svg width="60" height="60" viewBox="0 0 296 296" fill="none" xmlns="http://www.w3.org/2000/svg">
<path d="M37.1374 101.326C34.4321 107.743 35.329 115.017 38.7922 121.059V121.059C43.5906 129.442 51.4531 135.628 60.7609 138.287L94.2344 147.827C104.178 150.659 111 159.736 111 170.084V193.152C111 199.511 114.584 205.292 120.25 208.125C125.916 210.958 129.5 216.739 129.5 223.098V245.645C129.5 254.664 138.114 261.197 146.786 258.711C156.094 256.052 163.32 248.594 165.691 239.17L167.309 232.695C169.737 222.925 176.097 214.542 184.827 209.57L189.509 206.911C198.181 201.997 203.5 192.747 203.5 182.803V178.005C203.5 170.662 200.552 163.609 195.348 158.406L193.094 156.152C187.891 150.948 180.838 148 173.495 148H148.578C142.161 148 135.802 146.323 130.194 143.144L110.248 131.755C107.762 130.309 105.855 127.997 104.93 125.28C103.08 119.73 105.566 113.717 110.827 111.116L114.238 109.381C118.053 107.473 122.505 107.127 126.552 108.514L139.964 112.966C144.705 114.527 149.908 112.734 152.625 108.63C155.342 104.583 155.053 99.2063 151.931 95.4484L144.069 86.025C138.287 79.0875 138.345 68.9703 144.242 62.1484L153.319 51.5687C158.406 45.6141 159.216 37.1156 155.342 30.3516L153.955 27.9234C151.931 27.8078 149.966 27.75 147.942 27.75C98.1423 27.75 55.366 58.0858 37.1374 101.326ZM268.25 148C268.25 132.379 265.258 117.444 259.823 103.721C256.466 95.2433 246.647 91.8713 238.188 95.275V95.275C229.111 98.9172 224.428 109.034 227.492 118.284L237.262 147.595C239.286 153.608 244.2 158.175 250.328 159.678L251.687 160.019C259.929 162.087 268.192 156.498 268.192 148V148H268.25ZM296 148C296 229.747 229.747 296 148 296C66.2531 296 0 229.747 0 148C0 66.2531 66.2531 0 148 0C229.747 0 296 66.2531 296 148Z" fill="#101828"/>
</svg>
